PathFileType  4	(X/Y/Z) C:\Users\antoi\Documents\MyRepositories\mobilecap\ResultsAnalysis
DataRate	CameraRate	NumFrames	NumMarkers	Units	OrigDataRate	OrigDataStartFrame	OrigNumFrames
100.0	100.0	6	51	mm	100.0	196	261
Frame#	Time	r_knee			r_shank_antsup			r_ankle			r_calc			r_5meta			r_toe			L_knee			L_shank_antsup			L_ankle			L_calc			L_5meta			L_toe			r_sh2			r_sh3			r_sh4			L_sh2			L_sh3			r_thigh1			r_thigh2			r_thigh3			r_thigh4			r_thigh5			L_thigh1			L_thigh2			L_thigh3			L_thigh4			r.ASIS			r.PSIS			L.ASIS			L.PSIS			C7			R_Shoulder			L_Shoulder			R_Sternum			L_Sternum			R_humerus			R_elbow_med			R_elbow_lat			R_forearm			R_wrist_radius			R_wrist_ulna			L_humerus			L_elbow_med			L_elbow_lat			L_forearm			L_wrist_radius			L_wrist_ulna			R_HJC			L_HJC			R_HJC_reg			L_HJC_reg			
		X1	Y1	Z1	X2	Y2	Z2	X3	Y3	Z3	X4	Y4	Z4	X5	Y5	Z5	X6	Y6	Z6	X7	Y7	Z7	X8	Y8	Z8	X9	Y9	Z9	X10	Y10	Z10	X11	Y11	Z11	X12	Y12	Z12	X13	Y13	Z13	X14	Y14	Z14	X15	Y15	Z15	X16	Y16	Z16	X17	Y17	Z17	X18	Y18	Z18	X19	Y19	Z19	X20	Y20	Z20	X21	Y21	Z21	X22	Y22	Z22	X23	Y23	Z23	X24	Y24	Z24	X25	Y25	Z25	X26	Y26	Z26	X27	Y27	Z27	X28	Y28	Z28	X29	Y29	Z29	X30	Y30	Z30	X31	Y31	Z31	X32	Y32	Z32	X33	Y33	Z33	X34	Y34	Z34	X35	Y35	Z35	X36	Y36	Z36	X37	Y37	Z37	X38	Y38	Z38	X39	Y39	Z39	X40	Y40	Z40	X41	Y41	Z41	X42	Y42	Z42	X43	Y43	Z43	X44	Y44	Z44	X45	Y45	Z45	X46	Y46	Z46	X47	Y47	Z47	X48	Y48	Z48	X49	Y49	Z49	X50	Y50	Z50	X51	Y51	Z51	

196	1.95000000	-124.67091	581.16370	-406.06611	-90.98798	477.08453	-406.24923	-237.15672	175.09197	-432.80058	-327.30540	159.14987	-493.67054	-170.06140	62.15456	-381.04642	-94.44884	70.73261	-430.08387	-115.66278	585.82575	-822.56733	-117.08382	495.66717	-849.32222	-201.76580	174.96428	-808.03601	-292.54635	152.53161	-747.73413	-126.54322	63.09823	-842.66357	-57.01390	70.60648	-785.05197	-135.29498	373.51634	-385.81766	-151.77111	508.65702	-372.33832	-210.10360	408.50276	-374.74010	-204.38988	514.77010	-837.13661	-215.97958	393.29859	-832.50308	-134.20864	912.36839	-420.79554	-95.99743	811.37390	-415.87820	-140.03193	769.76661	-386.16178	-238.11158	869.97438	-422.46155	-192.23579	765.96911	-405.94339	-108.60884	887.99607	-807.13787	-65.58117	753.90876	-811.60542	-212.03565	855.55031	-826.96164	-174.66445	723.14725	-833.33862	-136.16339	1099.16889	-486.30296	-313.47870	1127.21711	-555.24959	-133.70429	1100.12747	-732.36984	-316.02900	1130.20779	-665.73572	-111.49382	1643.63542	-624.44895	-69.34166	1622.04274	-478.92821	-55.71436	1601.75563	-757.00717	1.34593	1545.61182	-579.14513	5.52277	1539.09115	-638.63577	-9.87613	1597.54234	-358.70137	88.17933	1463.99670	-214.66284	50.05698	1541.01627	-180.68123	161.24861	1640.76453	-259.32949	199.32429	1687.53081	-326.64882	226.44077	1681.92005	-290.33583	-8.53718	1576.86997	-864.43414	176.61146	1421.64525	-942.58751	157.83998	1498.01012	-986.65741	199.16706	1551.23109	-946.52658	297.44460	1639.97515	-837.04603	329.20617	1632.23393	-862.01827	-224.17340	989.67470	-506.59086	-226.59526	997.88129	-713.37474	-198.39168	1021.34322	-521.42868	-202.13963	1025.73640	-683.73923	
197	1.96000000	-138.95616	604.50689	-408.94674	-104.76592	502.41848	-405.51577	-226.39307	188.68847	-427.56857	-313.09896	181.44979	-489.79695	-165.89535	67.18297	-380.08155	-89.01628	72.46590	-426.94625	-130.53493	609.65569	-821.15504	-130.47400	519.85898	-849.30592	-188.68389	190.82155	-810.99417	-276.60418	177.13314	-749.38011	-120.55674	69.37672	-843.64431	-50.96982	71.48928	-786.29616	-143.38042	396.96862	-383.64262	-168.18488	530.69421	-374.09140	-220.35797	427.65516	-375.06034	-219.02904	533.09104	-835.52535	-222.83676	411.14422	-832.60082	-132.49747	936.82661	-421.30631	-99.08386	833.91166	-417.00763	-145.29519	794.44777	-387.51597	-238.70774	899.44648	-422.40964	-197.69868	793.01409	-406.84285	-107.03819	911.48331	-805.72129	-71.47945	775.26918	-808.91788	-211.86247	884.67015	-826.96855	-181.51210	750.35724	-832.81388	-129.39938	1127.80783	-485.67471	-305.35637	1156.04971	-555.31627	-125.08686	1129.54812	-730.88014	-306.96727	1159.53771	-666.27905	-113.15678	1674.39473	-622.64172	-71.68259	1652.09116	-476.83392	-60.31847	1632.73913	-756.62449	0.16393	1577.63277	-578.59012	4.26861	1571.44286	-638.16627	-13.11453	1625.90901	-354.97116	86.54919	1491.65365	-214.06419	47.07758	1567.35676	-178.78059	155.62526	1669.43953	-258.01621	192.13463	1717.59161	-325.40290	220.03022	1711.46925	-290.02923	-15.11650	1606.60283	-866.45918	169.45777	1449.57906	-943.91017	149.29604	1524.41022	-989.75628	190.37501	1578.41612	-950.80858	288.70224	1670.57060	-843.82540	320.37243	1662.78756	-868.81231	-216.97782	1018.37859	-506.63792	-217.74915	1027.29184	-713.40473	-191.22036	1050.22478	-521.52739	-193.57290	1055.30879	-683.29494	
198	1.97000000	-153.64127	629.28058	-412.03316	-118.65141	529.38538	-405.53508	-214.76558	203.93463	-420.95333	-296.52814	205.42852	-484.96074	-161.31619	74.01549	-378.81349	-82.67948	76.66616	-422.23749	-145.66609	634.44691	-820.28051	-143.41981	545.44141	-848.87123	-173.41425	209.23813	-814.78131	-257.90729	205.43373	-752.03629	-114.04180	79.25497	-843.66536	-43.80593	76.55294	-787.44912	-150.78635	422.48595	-381.24976	-184.65834	554.34045	-377.30154	-230.33787	447.81059	-375.70600	-232.69700	551.66534	-833.38429	-227.51928	429.68704	-832.60353	-131.58884	960.99500	-421.80448	-102.91592	856.22842	-418.31012	-151.22208	818.99283	-389.06699	-239.81869	928.63124	-422.83416	-203.78319	820.04630	-408.05955	-106.52696	934.69824	-804.00982	-77.70478	796.86368	-806.30601	-212.18820	912.86921	-827.26989	-188.37934	777.21275	-831.70428	-123.43282	1155.53288	-484.61671	-297.59776	1184.69486	-555.49554	-117.34940	1158.05032	-729.22055	-298.20385	1188.70146	-666.65760	-114.43087	1703.97573	-620.84317	-74.01751	1680.35274	-475.21527	-64.51679	1662.01982	-756.42670	-1.05250	1608.31206	-577.56089	3.23324	1602.38372	-637.57589	-15.41894	1653.02305	-350.52754	85.00670	1517.51113	-213.81514	44.40429	1591.92433	-177.22081	150.73371	1696.31349	-256.46677	185.80222	1745.96505	-323.52062	214.40944	1739.32127	-289.05956	-21.71210	1634.43011	-868.35210	162.03636	1475.48478	-945.99488	140.62815	1549.00324	-993.01585	181.79242	1603.79241	-955.90183	281.10924	1698.49003	-851.48960	312.59481	1690.41839	-876.68919	-210.98907	1046.54799	-506.52752	-209.93479	1056.15561	-713.26188	-185.16656	1078.35189	-521.28635	-186.04486	1084.16964	-682.67659	
199	1.98000000	-169.58975	654.10058	-414.17970	-131.64875	556.38124	-405.78562	-205.11364	221.28962	-414.54235	-281.76056	228.89067	-480.95544	-156.23834	85.33871	-377.44241	-75.46568	87.79653	-416.85882	-160.13762	659.09420	-820.41460	-154.39817	570.81104	-848.73724	-161.07906	230.17211	-818.14891	-242.44261	234.20792	-754.88520	-107.77560	95.39228	-842.27838	-36.28494	90.51117	-787.29543	-157.30942	448.76656	-378.18377	-200.02002	578.34757	-380.88701	-238.27271	468.01008	-376.98728	-243.64195	570.14382	-831.59528	-229.47286	448.71118	-832.43870	-131.43820	984.01533	-422.09414	-107.57083	877.70226	-419.57335	-157.73925	842.61649	-390.83230	-240.99541	956.84753	-423.30767	-210.44230	846.38653	-409.52487	-106.98354	957.15584	-802.56293	-83.75846	818.17228	-804.50280	-213.04056	939.42090	-827.64596	-194.92630	802.93153	-830.14029	-118.08600	1181.88589	-483.30022	-290.30986	1212.55008	-555.80975	-110.67235	1185.02551	-727.28720	-290.06207	1217.23712	-666.56181	-115.52521	1731.70348	-619.52862	-76.52020	1706.60877	-474.13007	-68.19583	1689.25232	-756.42770	-2.36058	1637.15421	-576.52051	2.20303	1631.43052	-636.93856	-17.87896	1678.63047	-347.01183	83.43011	1541.57574	-213.95972	41.96033	1614.89666	-176.03904	146.50945	1721.41905	-254.80859	180.47764	1772.52921	-321.16099	209.59835	1765.37997	-287.64768	-27.98181	1660.00771	-870.01079	154.52422	1499.53012	-948.86087	132.10476	1572.18812	-996.53499	173.74887	1627.48650	-961.63657	274.64363	1723.86951	-859.59651	305.79945	1715.39165	-885.13309	-206.17585	1073.69762	-506.17001	-203.38444	1083.90906	-712.85975	-179.98746	1105.06861	-520.82257	-179.62428	1111.88308	-681.79719	
200	1.99000000	-184.56027	677.79211	-415.31658	-142.44257	581.74987	-405.56175	-199.17059	241.11048	-410.63122	-272.51228	249.58493	-479.11661	-149.81139	103.67311	-375.22668	-67.34535	108.53531	-411.63145	-169.68373	683.03389	-821.32715	-160.75901	595.18934	-849.98660	-155.26887	252.70557	-819.53654	-235.19881	258.47265	-756.26998	-101.50672	117.37598	-840.53732	-29.08154	114.06916	-785.96867	-163.69244	473.97531	-375.50509	-212.61312	601.17698	-383.35607	-244.93002	488.51402	-378.40589	-249.48042	590.61945	-830.74433	-230.25364	469.76843	-832.55223	-132.19188	1005.50783	-421.57937	-112.75548	898.18813	-420.15221	-164.63863	864.85826	-392.43986	-242.45525	983.11852	-423.60468	-217.12556	871.24871	-411.49254	-107.45813	979.05732	-802.53220	-88.34877	839.46814	-804.37106	-214.05925	964.33683	-827.02835	-200.00113	827.38223	-829.00985	-113.24124	1206.47403	-481.87861	-283.80881	1239.17652	-555.88575	-105.13389	1209.98536	-725.05986	-283.12115	1244.81823	-666.01086	-116.75996	1757.14187	-618.81717	-78.85724	1731.22408	-473.11676	-71.35371	1714.27198	-756.56862	-3.45155	1663.86487	-575.88816	1.23987	1658.34768	-636.37461	-20.57518	1702.57644	-344.91528	81.80314	1563.95748	-214.38458	39.69049	1636.38560	-175.19636	142.94523	1744.72828	-253.15351	176.04822	1797.12551	-318.86284	205.53106	1789.49628	-285.96342	-33.71404	1683.33732	-871.49161	147.14360	1521.87841	-952.29934	123.87873	1593.98150	-1000.23915	166.47393	1649.54237	-967.70151	269.17569	1746.81154	-867.89860	299.88066	1738.00196	-893.91494	-202.61855	1099.45153	-505.48876	-198.43622	1110.13777	-712.13118	-175.50748	1129.87952	-520.17843	-174.50719	1138.09637	-680.56930	
201	2.00000000	-194.30016	700.05065	-416.42173	-150.09538	605.16241	-404.94121	-196.39922	262.65947	-409.58708	-268.41493	267.55095	-479.44512	-142.94875	127.33395	-371.61798	-59.67745	135.26868	-406.20607	-170.74716	706.25188	-822.14026	-161.84745	618.51832	-851.66189	-154.52264	275.56717	-818.96220	-234.40474	278.35654	-755.43991	-96.72274	141.37839	-839.71545	-23.84332	141.25163	-785.44323	-169.88447	497.15084	-374.81747	-221.35235	622.83246	-384.72866	-251.17888	509.89544	-379.31453	-250.09147	614.09102	-830.35892	-231.21252	493.33393	-832.95547	-133.89299	1025.85502	-419.91606	-117.93107	917.79157	-419.62129	-171.17522	885.89214	-393.17475	-244.67496	1006.74838	-424.22790	-222.95716	894.19174	-413.76618	-107.29663	1000.99614	-803.37013	-90.05434	861.39194	-805.68138	-214.52815	987.86130	-825.78679	-202.17282	850.77447	-829.12124	-109.01892	1229.07463	-480.54208	-278.49700	1264.32969	-555.39453	-100.83932	1232.82639	-722.85512	-277.89011	1271.05113	-665.17359	-118.11906	1780.72736	-618.24516	-80.69198	1754.50159	-471.95492	-73.97687	1737.31338	-756.85832	-4.06832	1688.60506	-575.44558	0.51238	1683.26549	-635.91570	-22.78104	1724.98549	-343.72764	80.09206	1584.72903	-214.97911	37.53041	1656.38115	-174.69825	139.98520	1766.29541	-251.52131	172.29574	1819.81543	-316.82441	202.13392	1811.67099	-284.03401	-38.84562	1704.71783	-872.76897	140.06718	1542.61800	-955.99077	116.03162	1614.27682	-1004.00902	159.92936	1670.02285	-973.74622	264.62694	1767.59713	-876.29534	294.74173	1758.50009	-902.88223	-200.34937	1123.55252	-504.58916	-195.33631	1134.64342	-711.19193	-171.86957	1152.75905	-519.37065	-170.98750	1162.53743	-679.10504	
